<svg id="Group_90" data-name="Group 90" xmlns="http://www.w3.org/2000/svg" width="18.612" height="18.611"><path id="Path_715" data-name="Path 715" d="M13.385 5.756c2.485 0 2.779.009 3.76.054a5.15 5.15 0 011.728.32 3.081 3.081 0 011.766 1.77 5.149 5.149 0 01.32 1.728c.045.981.054 1.276.054 3.76s-.009 2.779-.054 3.76a5.149 5.149 0 01-.32 1.728 3.082 3.082 0 01-1.766 1.766 5.151 5.151 0 01-1.728.32c-.981.045-1.275.054-3.76.054S10.606 21 9.624 20.96a5.151 5.151 0 01-1.728-.32 3.082 3.082 0 01-1.766-1.767 5.15 5.15 0 01-.32-1.728c-.045-.981-.054-1.276-.054-3.76s.009-2.779.054-3.76A5.15 5.15 0 016.13 7.9 3.082 3.082 0 017.9 6.13a5.149 5.149 0 011.728-.32c.981-.045 1.276-.054 3.76-.054m0-1.677c-2.527 0-2.844.011-3.837.056a6.83 6.83 0 00-2.259.433 4.759 4.759 0 00-2.724 2.721 6.83 6.83 0 00-.433 2.259c-.045.993-.056 1.309-.056 3.837s.011 2.844.056 3.837a6.83 6.83 0 00.433 2.259A4.759 4.759 0 007.289 22.2a6.831 6.831 0 002.259.433c.993.045 1.309.056 3.837.056s2.844-.011 3.837-.056a6.831 6.831 0 002.258-.433 4.759 4.759 0 002.72-2.72 6.831 6.831 0 00.433-2.259c.045-.993.056-1.309.056-3.837s-.011-2.844-.056-3.837a6.831 6.831 0 00-.433-2.258 4.759 4.759 0 00-2.72-2.721 6.83 6.83 0 00-2.259-.433c-.993-.045-1.309-.056-3.837-.056z" transform="translate(-4.079 -4.079)"/><path id="Path_716" data-name="Path 716" d="M131.414 126.635a4.779 4.779 0 104.779 4.779 4.779 4.779 0 00-4.779-4.779zm0 7.881a3.1 3.1 0 113.1-3.1 3.1 3.1 0 01-3.1 3.1z" transform="translate(-122.108 -122.108)"/><circle id="Ellipse_12" data-name="Ellipse 12" cx="1.117" cy="1.117" r="1.117" transform="rotate(-45 11.583 -13.154)"/></svg>