<svg xmlns="http://www.w3.org/2000/svg" width="22.547" height="15.856"><g id="social-youtube" transform="translate(-97 75)"><path id="Path_714" data-name="Path 714" d="M638.445-80.8a4.854 4.854 0 00-.9-2.236 3.223 3.223 0 00-2.256-.964c-3.156-.228-7.889-.228-7.889-.228h-.008s-4.733 0-7.889.228a3.223 3.223 0 00-2.258.956 4.887 4.887 0 00-.9 2.236 34.175 34.175 0 00-.225 3.65v1.711a34.091 34.091 0 00.225 3.648 4.894 4.894 0 00.9 2.239 3.831 3.831 0 002.486.964c1.8.173 7.666.225 7.666.225s4.735-.006 7.891-.233a3.235 3.235 0 002.258-.956 4.861 4.861 0 00.9-2.239 34.127 34.127 0 00.225-3.648v-1.711a34.212 34.212 0 00-.226-3.642zm-13.376 7.421v-6.334l6.092 3.178z" transform="translate(-519.123 9.224)" fill="#191919"/></g></svg>